<svg id="Icon_awesome-check-circle" data-name="Icon awesome-check-circle" xmlns="http://www.w3.org/2000/svg" width="25" height="25" viewBox="0 0 48 48">
  <path id="Icon_awesome-check-circle-2" data-name="Icon awesome-check-circle" d="M48.563,24.563a24,24,0,1,1-24-24A24,24,0,0,1,48.563,24.563ZM21.786,37.27,39.593,19.464a1.548,1.548,0,0,0,0-2.19l-2.19-2.19a1.548,1.548,0,0,0-2.19,0L20.692,29.606l-6.78-6.78a1.549,1.549,0,0,0-2.19,0l-2.19,2.19a1.548,1.548,0,0,0,0,2.19L19.6,37.27a1.548,1.548,0,0,0,2.19,0Z" transform="translate(-0.563 -0.563)" fill="#fff"/>
</svg>
