<svg id="IconDelete" xmlns="http://www.w3.org/2000/svg" width="25" height="25" viewBox="0 0 48 48">
  <path id="Differenzmenge_1" data-name="Differenzmenge 1" d="M24,48A24.006,24.006,0,0,1,14.658,1.886,24.006,24.006,0,0,1,33.342,46.114,23.849,23.849,0,0,1,24,48ZM15.5,17V35a3,3,0,0,0,3,3h12a3,3,0,0,0,3-3V17ZM14,12.5v3H35v-3H29.75L28.25,11h-7.5l-1.5,1.5Zm7.319,20.3h0L19.205,30.68l3.18-3.18L19.19,24.32,21.3,22.2,24.5,25.385,27.68,22.2,29.8,24.32,26.615,27.5,29.8,30.68l-2.114,2.114L24.5,29.615,21.32,32.8Z" transform="translate(0 0)" fill="#fff"/>
</svg>
