<svg xmlns="http://www.w3.org/2000/svg" xmlns:xlink="http://www.w3.org/1999/xlink" width="46.921" height="48.849" viewBox="0 0 46.921 48.849">
  <defs>
    <filter id="Icon_metro-calendar" x="0" y="0" width="46.921" height="48.849" filterUnits="userSpaceOnUse">
      <feOffset dy="3" input="SourceAlpha"/>
      <feGaussianBlur stdDeviation="3" result="blur"/>
      <feFlood flood-opacity="0.161"/>
      <feComposite operator="in" in2="blur"/>
      <feComposite in="SourceGraphic"/>
    </filter>
  </defs>
  <g transform="matrix(1, 0, 0, 1, 0, 0)" filter="url(#Icon_metro-calendar)">
    <path id="Icon_metro-calendar-2" data-name="Icon metro-calendar" d="M12.211,13.5h3.856v3.856H12.211Zm5.784,0h3.856v3.856H17.995Zm5.784,0h3.856v3.856H23.779ZM6.427,25.064h3.856v3.856H6.427Zm5.784,0h3.856v3.856H12.211Zm5.784,0h3.856v3.856H17.995ZM12.211,19.28h3.856v3.856H12.211Zm5.784,0h3.856v3.856H17.995Zm5.784,0h3.856v3.856H23.779Zm-17.352,0h3.856v3.856H6.427ZM27.635,1.928V3.856H23.779V1.928h-13.5V3.856H6.427V1.928H2.571V32.777H31.491V1.928H27.635Zm1.928,28.921H4.5V9.64H29.563Z" transform="translate(6.43 4.07)" fill="#fff"/>
  </g>
</svg>
